<svg width="287" height="40" viewBox="0 0 287 40" fill="none" xmlns="http://www.w3.org/2000/svg">
<g clip-path="url(#clip0_20_268)">
<path d="M54.918 32.7734C52.5299 32.7734 50.707 32.4681 49.4492 31.8574V29.6152C50.2786 29.9707 51.1764 30.2487 52.1426 30.4492C53.1087 30.6406 54.0612 30.7363 55 30.7363C56.5312 30.7363 57.6934 30.4447 58.4863 29.8613C59.2793 29.278 59.6758 28.4577 59.6758 27.4004C59.6758 26.7168 59.5391 26.1517 59.2656 25.7051C58.9922 25.2585 58.5273 24.8483 57.8711 24.4746C57.224 24.11 56.2305 23.6862 54.8906 23.2031C53.6419 22.7565 52.6393 22.2643 51.8828 21.7266C51.1263 21.1797 50.5749 20.5462 50.2285 19.8262C49.8822 19.1061 49.709 18.2539 49.709 17.2695C49.709 16.2578 49.9688 15.3737 50.4883 14.6172C51.0169 13.8516 51.7598 13.2637 52.7168 12.8535C53.6738 12.4342 54.7812 12.2246 56.0391 12.2246C58.0169 12.2246 59.8444 12.5892 61.5215 13.3184L60.7969 15.3418C59.1562 14.6491 57.5521 14.3027 55.9844 14.3027C54.7539 14.3027 53.7923 14.5671 53.0996 15.0957C52.4069 15.6243 52.0605 16.3581 52.0605 17.2969C52.0605 17.9896 52.1882 18.5547 52.4434 18.9922C52.6986 19.4297 53.1315 19.8353 53.7422 20.209C54.3346 20.5736 55.2598 20.9837 56.5176 21.4395C57.9212 21.9408 59.0195 22.4603 59.8125 22.998C60.6055 23.5267 61.1706 24.1237 61.5078 24.7891C61.8542 25.4453 62.0273 26.2428 62.0273 27.1816C62.0273 28.3392 61.7402 29.3418 61.166 30.1895C60.5918 31.028 59.7669 31.6706 58.6914 32.1172C57.625 32.5547 56.3672 32.7734 54.918 32.7734ZM71.8506 32.7734C70.4105 32.7734 69.18 32.4727 68.1592 31.8711C67.1384 31.2695 66.3591 30.3991 65.8213 29.2598C65.2927 28.1113 65.0283 26.7259 65.0283 25.1035C65.0283 23.4355 65.2972 22.0137 65.835 20.8379C66.3819 19.6621 67.1748 18.7689 68.2139 18.1582C69.253 17.5475 70.5153 17.2422 72.001 17.2422C72.7028 17.2422 73.4138 17.3197 74.1338 17.4746C74.863 17.6204 75.4372 17.8027 75.8565 18.0215L75.1592 19.9492C74.6488 19.7487 74.0974 19.5846 73.5049 19.457C72.9125 19.3203 72.3929 19.252 71.9463 19.252C68.902 19.252 67.3799 21.1934 67.3799 25.0762C67.3799 26.9264 67.7536 28.3438 68.501 29.3281C69.2484 30.3034 70.3467 30.791 71.7959 30.791C73.0355 30.791 74.3161 30.5221 75.6377 29.9844V31.9941C74.6442 32.5137 73.3819 32.7734 71.8506 32.7734ZM79.295 17.5156H81.5645V32.5H79.295V17.5156ZM80.4434 14.9727C80.0424 14.9727 79.7188 14.8451 79.4727 14.5898C79.2266 14.3255 79.1036 13.9473 79.1036 13.4551C79.1036 12.9538 79.2266 12.5801 79.4727 12.334C79.7188 12.0788 80.0424 11.9512 80.4434 11.9512C80.8262 11.9512 81.1452 12.0788 81.4004 12.334C81.6556 12.5892 81.7832 12.9629 81.7832 13.4551C81.7832 13.9473 81.6556 14.3255 81.4004 14.5898C81.1452 14.8451 80.8262 14.9727 80.4434 14.9727ZM92.796 32.7734C91.3285 32.7734 90.057 32.4727 88.9815 31.8711C87.906 31.2604 87.0766 30.3809 86.4932 29.2324C85.919 28.084 85.6319 26.7168 85.6319 25.1309C85.6319 23.5358 85.9008 22.1458 86.4385 20.9609C86.9763 19.7669 87.7419 18.8509 88.7354 18.2129C89.7289 17.5658 90.8865 17.2422 92.2081 17.2422C93.4477 17.2422 94.5232 17.5247 95.4346 18.0898C96.3552 18.6458 97.0616 19.4342 97.5538 20.4551C98.0551 21.4668 98.3057 22.6426 98.3057 23.9824V25.418H87.9835C88.029 27.168 88.4711 28.5033 89.3096 29.4238C90.1482 30.3353 91.3376 30.791 92.878 30.791C94.4822 30.791 96.0772 30.4538 97.6632 29.7793V31.8027C96.852 32.1582 96.0863 32.4089 95.3663 32.5547C94.6462 32.7005 93.7895 32.7734 92.796 32.7734ZM95.8721 23.5723C95.8721 22.1504 95.5531 21.0566 94.9151 20.291C94.2771 19.5254 93.3656 19.1426 92.1807 19.1426C90.9867 19.1426 90.0297 19.5345 89.3096 20.3184C88.5896 21.0931 88.1658 22.1777 88.0382 23.5723H95.8721ZM102.277 17.5156H104.123L104.492 19.5664H104.602C105.066 18.8281 105.714 18.2585 106.543 17.8574C107.382 17.4473 108.32 17.2422 109.359 17.2422C111.191 17.2422 112.554 17.6842 113.447 18.5684C114.35 19.4525 114.801 20.8379 114.801 22.7246V32.5H112.531V22.8066C112.531 21.5762 112.249 20.6647 111.684 20.0723C111.128 19.4707 110.262 19.1699 109.086 19.1699C108.029 19.1699 107.167 19.3568 106.502 19.7305C105.837 20.1042 105.344 20.6921 105.025 21.4941C104.706 22.2871 104.547 23.3353 104.547 24.6387V32.5H102.277V17.5156ZM125.554 32.7734C124.114 32.7734 122.883 32.4727 121.862 31.8711C120.842 31.2695 120.062 30.3991 119.525 29.2598C118.996 28.1113 118.732 26.7259 118.732 25.1035C118.732 23.4355 119 22.0137 119.538 20.8379C120.085 19.6621 120.878 18.7689 121.917 18.1582C122.956 17.5475 124.219 17.2422 125.704 17.2422C126.406 17.2422 127.117 17.3197 127.837 17.4746C128.566 17.6204 129.14 17.8027 129.56 18.0215L128.862 19.9492C128.352 19.7487 127.801 19.5846 127.208 19.457C126.616 19.3203 126.096 19.252 125.65 19.252C122.605 19.252 121.083 21.1934 121.083 25.0762C121.083 26.9264 121.457 28.3438 122.204 29.3281C122.952 30.3034 124.05 30.791 125.499 30.791C126.739 30.791 128.019 30.5221 129.341 29.9844V31.9941C128.347 32.5137 127.085 32.7734 125.554 32.7734ZM139.328 32.7734C137.861 32.7734 136.589 32.4727 135.514 31.8711C134.438 31.2604 133.609 30.3809 133.026 29.2324C132.451 28.084 132.164 26.7168 132.164 25.1309C132.164 23.5358 132.433 22.1458 132.971 20.9609C133.509 19.7669 134.274 18.8509 135.268 18.2129C136.261 17.5658 137.419 17.2422 138.74 17.2422C139.98 17.2422 141.055 17.5247 141.967 18.0898C142.887 18.6458 143.594 19.4342 144.086 20.4551C144.587 21.4668 144.838 22.6426 144.838 23.9824V25.418H134.516C134.561 27.168 135.003 28.5033 135.842 29.4238C136.68 30.3353 137.87 30.791 139.41 30.791C141.014 30.791 142.61 30.4538 144.195 29.7793V31.8027C143.384 32.1582 142.619 32.4089 141.899 32.5547C141.179 32.7005 140.322 32.7734 139.328 32.7734ZM142.404 23.5723C142.404 22.1504 142.085 21.0566 141.447 20.291C140.809 19.5254 139.898 19.1426 138.713 19.1426C137.519 19.1426 136.562 19.5345 135.842 20.3184C135.122 21.0931 134.698 22.1777 134.57 23.5723H142.404ZM154.135 12.5117H156.596L159.754 24.8574C160.182 26.5618 160.501 28.1296 160.711 29.5605C160.948 27.929 161.313 26.2975 161.805 24.666L165.387 12.5117H167.848L171.608 24.7754C172.045 26.179 172.414 27.7741 172.715 29.5605C172.888 28.2754 173.216 26.6986 173.699 24.8301L176.844 12.5117H179.305L173.959 32.5H171.662L167.629 19.1152C167.429 18.5046 167.21 17.7526 166.973 16.8594C166.745 15.9661 166.626 15.4284 166.617 15.2461C166.408 16.4766 166.089 17.7936 165.66 19.1973L161.75 32.5H159.453L154.135 12.5117ZM188.171 32.7734C186.831 32.7734 185.642 32.459 184.603 31.8301C183.564 31.2012 182.762 30.2988 182.196 29.123C181.631 27.9382 181.349 26.5618 181.349 24.9941C181.349 23.3809 181.622 21.9954 182.169 20.8379C182.725 19.6712 183.518 18.7826 184.548 18.1719C185.587 17.5521 186.827 17.2422 188.267 17.2422C189.652 17.2422 190.86 17.5566 191.89 18.1855C192.929 18.8145 193.726 19.7122 194.282 20.8789C194.838 22.0456 195.116 23.4173 195.116 24.9941C195.116 26.6074 194.838 27.9974 194.282 29.1641C193.726 30.3307 192.929 31.224 191.89 31.8438C190.851 32.4635 189.611 32.7734 188.171 32.7734ZM188.226 30.873C189.711 30.873 190.837 30.3763 191.603 29.3828C192.377 28.3802 192.765 26.9173 192.765 24.9941C192.765 23.0801 192.377 21.6309 191.603 20.6465C190.837 19.6621 189.702 19.1699 188.198 19.1699C186.713 19.1699 185.592 19.6576 184.835 20.6328C184.079 21.6081 183.7 23.0618 183.7 24.9941C183.7 26.9082 184.083 28.3665 184.849 29.3691C185.624 30.3717 186.749 30.873 188.226 30.873ZM199.197 17.5156H201.071L201.33 20.291H201.44C201.996 19.3066 202.666 18.5547 203.449 18.0352C204.242 17.5065 205.104 17.2422 206.033 17.2422C206.69 17.2422 207.287 17.2969 207.824 17.4062L207.51 19.5117C206.89 19.375 206.343 19.3066 205.869 19.3066C205.067 19.3066 204.329 19.5345 203.655 19.9902C202.989 20.4368 202.456 21.0566 202.055 21.8496C201.663 22.6335 201.467 23.5039 201.467 24.4609V32.5H199.197V17.5156ZM210.716 11.2266H212.958V22.5059C212.958 22.9342 212.922 23.709 212.849 24.8301H212.958C213.378 24.2467 213.975 23.5176 214.749 22.6426L219.589 17.5156H222.282L216.212 23.9004L222.706 32.5H219.958L214.667 25.418L212.958 26.8945V32.5H210.716V11.2266ZM229.248 32.7734C227.261 32.7734 225.712 32.459 224.6 31.8301V29.7246C225.329 30.0892 226.104 30.3763 226.924 30.5859C227.754 30.7956 228.546 30.9004 229.303 30.9004C230.497 30.9004 231.408 30.709 232.037 30.3262C232.675 29.9434 232.994 29.3691 232.994 28.6035C232.994 28.0202 232.744 27.5189 232.242 27.0996C231.732 26.6895 230.743 26.2018 229.276 25.6367C227.872 25.1172 226.883 24.6615 226.309 24.2695C225.716 23.8776 225.274 23.4355 224.983 22.9434C224.7 22.4512 224.559 21.8678 224.559 21.1934C224.559 20.3822 224.782 19.6803 225.229 19.0879C225.675 18.4954 226.318 18.0397 227.157 17.7207C227.995 17.4017 228.989 17.2422 230.137 17.2422C231.75 17.2422 233.327 17.5703 234.867 18.2266L234.061 20.0723C232.548 19.4525 231.185 19.1426 229.973 19.1426C228.916 19.1426 228.109 19.3112 227.553 19.6484C226.997 19.9766 226.719 20.4414 226.719 21.043C226.719 21.444 226.819 21.7858 227.02 22.0684C227.22 22.3509 227.553 22.6198 228.018 22.875C228.474 23.1393 229.349 23.5085 230.643 23.9824C231.828 24.4108 232.744 24.8392 233.391 25.2676C234.047 25.6868 234.507 26.1471 234.772 26.6484C235.045 27.1406 235.182 27.7285 235.182 28.4121C235.182 29.8066 234.662 30.8822 233.623 31.6387C232.593 32.3952 231.135 32.7734 229.248 32.7734ZM238.976 11.2266H241.245V17.666C241.245 18.4134 241.209 19.056 241.136 19.5938H241.273C241.719 18.8646 242.357 18.2949 243.187 17.8848C244.016 17.4746 244.955 17.2695 246.003 17.2695C247.853 17.2695 249.23 17.7116 250.132 18.5957C251.044 19.4707 251.499 20.847 251.499 22.7246V32.5H249.23V22.8066C249.23 21.5762 248.947 20.6647 248.382 20.0723C247.826 19.4707 246.96 19.1699 245.784 19.1699C244.718 19.1699 243.852 19.3613 243.187 19.7441C242.531 20.1178 242.043 20.7057 241.724 21.5078C241.405 22.3099 241.245 23.3626 241.245 24.666V32.5H238.976V11.2266ZM262.252 32.7734C260.912 32.7734 259.723 32.459 258.684 31.8301C257.645 31.2012 256.843 30.2988 256.278 29.123C255.713 27.9382 255.43 26.5618 255.43 24.9941C255.43 23.3809 255.703 21.9954 256.25 20.8379C256.806 19.6712 257.599 18.7826 258.629 18.1719C259.668 17.5521 260.908 17.2422 262.348 17.2422C263.733 17.2422 264.941 17.5566 265.971 18.1855C267.01 18.8145 267.808 19.7122 268.364 20.8789C268.92 22.0456 269.198 23.4173 269.198 24.9941C269.198 26.6074 268.92 27.9974 268.364 29.1641C267.808 30.3307 267.01 31.224 265.971 31.8438C264.932 32.4635 263.692 32.7734 262.252 32.7734ZM262.307 30.873C263.793 30.873 264.918 30.3763 265.684 29.3828C266.459 28.3802 266.846 26.9173 266.846 24.9941C266.846 23.0801 266.459 21.6309 265.684 20.6465C264.918 19.6621 263.784 19.1699 262.28 19.1699C260.794 19.1699 259.673 19.6576 258.916 20.6328C258.16 21.6081 257.782 23.0618 257.782 24.9941C257.782 26.9082 258.164 28.3665 258.93 29.3691C259.705 30.3717 260.83 30.873 262.307 30.873ZM273.279 17.5156H275.124L275.439 19.5664H275.548C276.122 18.7643 276.792 18.1764 277.558 17.8027C278.333 17.429 279.23 17.2422 280.251 17.2422C281.573 17.2422 282.699 17.5475 283.628 18.1582C284.558 18.7689 285.264 19.653 285.747 20.8105C286.23 21.9681 286.472 23.3626 286.472 24.9941C286.472 26.6257 286.226 28.0247 285.734 29.1914C285.242 30.3581 284.526 31.2467 283.587 31.8574C282.658 32.4681 281.546 32.7734 280.251 32.7734C279.258 32.7734 278.36 32.5911 277.558 32.2266C276.756 31.8529 276.086 31.3014 275.548 30.5723H275.384C275.493 31.4473 275.548 32.2767 275.548 33.0605V39.2266H273.279V17.5156ZM279.978 30.873C280.835 30.873 281.573 30.6361 282.193 30.1621C282.812 29.6882 283.286 29.0091 283.615 28.125C283.952 27.2409 284.12 26.1882 284.12 24.9668C284.12 23.1074 283.756 21.6764 283.027 20.6738C282.298 19.6712 281.263 19.1699 279.923 19.1699C278.902 19.1699 278.073 19.3568 277.435 19.7305C276.797 20.1042 276.327 20.6784 276.027 21.4531C275.726 22.2279 275.566 23.2396 275.548 24.4883V24.9941C275.548 26.4069 275.699 27.5417 275.999 28.3984C276.309 29.2552 276.788 29.8841 277.435 30.2852C278.082 30.6771 278.93 30.873 279.978 30.873Z" fill="black"/>
<path d="M37.5 9.52081V34.0208" stroke="#CCCCCC" stroke-linecap="square"/>
<g clip-path="url(#clip1_20_268)">
<path d="M25.5223 36.8013H20.0565C19.2598 35.7452 18.7595 34.3926 18.7595 32.7436C18.7595 28.3339 24.0586 27.0184 24.0586 18.2544C24.0586 11.5287 19.9082 8.04533 14.8871 6.76688C14.9241 8.56413 14.9427 10.3614 14.9612 12.1586H19.1115V24.9617C19.1115 24.9617 5.95641 24.9617 4.41856 24.9617C2.89923 24.9617 3.28833 26.796 4.41856 26.796C5.54879 26.796 13.8495 26.8516 13.8495 26.8516L13.868 36.8198H11.6817C10.4959 36.8198 9.75472 36.8198 9.75472 36.8198L6.45668 36.8569C6.45668 36.8569 4.15916 36.8569 2.51014 36.8569C0.861117 36.8569 0.805532 39.4323 2.51014 39.4323H25.2815C25.3741 39.4323 25.4668 39.4323 25.5594 39.4323C27.4863 39.4138 27.4863 36.8013 25.5223 36.8013Z" fill="#FFC943"/>
<path d="M5.2522 36.1158V34.5408C5.2522 33.2253 6.30831 32.1692 7.62383 32.1692C8.93934 32.1692 9.99545 33.2253 9.99545 34.5408V36.0602" fill="#73DAD9"/>
<path d="M9.62502 3.61705C9.62502 3.61705 9.62502 3.61705 9.62502 1.83833C9.62502 0.0596114 7.10516 0.0966682 7.10516 1.78275C7.10516 3.46883 7.10516 14.5117 7.10516 15.7346C7.10516 17.5133 9.62502 17.5133 9.62502 15.7346C9.62502 15.3084 9.62502 14.9564 9.62502 14.7155C9.62502 14.2523 9.23592 13.8632 8.77271 13.8632H5.32644C3.58478 13.8632 3.58478 11.4731 5.32644 11.4731C6.7346 11.4731 7.40162 11.4731 8.36509 11.4731C9.19887 11.4731 9.62502 10.9728 9.62502 10.2687C9.62502 9.21261 9.62502 5.50694 9.62502 5.50694C16.5176 5.50694 23.5769 8.80499 23.5769 17.5689C23.5769 26.3328 18.2778 27.6483 18.2778 32.0581C18.2778 36.4678 21.7981 38.7283 25.0406 38.7283C27.0231 38.7283 27.0231 36.1158 25.0406 36.1158C22.4837 36.1158 9.25445 36.1158 9.25445 36.1158V33.3921H5.93788V36.1343C5.93788 36.1343 3.64036 36.1343 1.99134 36.1343C0.342318 36.1343 0.286733 38.7097 1.99134 38.7097C3.69595 38.7097 11.0146 38.7097 13.3677 38.7097L13.3307 26.129C13.3307 26.129 5.04852 26.0919 3.89976 26.0919C2.76953 26.0919 2.38043 24.2391 3.89976 24.2391C5.41908 24.2391 18.5927 24.2391 18.5927 24.2391V11.4545H11.0888" stroke="black" stroke-width="0.185283" stroke-miterlimit="10"/>
<path d="M6.6604 23.6091C6.6604 22.6827 7.40153 21.9416 8.32795 21.9416C9.25437 21.9416 9.9955 22.6827 9.9955 23.6091" fill="#FF414B"/>
</g>
</g>
<defs>
<clipPath id="clip0_20_268">
<rect width="287" height="40" fill="white"/>
</clipPath>
<clipPath id="clip1_20_268">
<rect width="27" height="40" fill="white"/>
</clipPath>
</defs>
</svg>
