<svg width="186" height="186" viewBox="0 0 186 186" fill="none" xmlns="http://www.w3.org/2000/svg">
<path fill-rule="evenodd" clip-rule="evenodd" d="M37.3475 172.222C38.5233 172.222 39.7013 172.81 40.5086 173.596C41.2945 174.402 41.6866 175.602 41.6866 176.801C41.6866 177.979 41.2945 179.178 40.5086 179.986C39.7013 180.772 38.5233 181.163 37.3475 181.163C36.1695 181.163 34.9919 180.772 34.1842 179.986C33.3983 179.178 33.0062 177.979 33.0062 176.801C33.0062 175.602 33.3983 174.402 34.1842 173.596C34.9919 172.809 36.1699 172.222 37.3475 172.222ZM152.245 176.444C153.248 176.444 154.034 177.251 154.034 178.035C154.034 179.038 153.248 179.824 152.245 179.824H133.725C132.745 179.824 131.96 179.038 131.96 178.035C131.96 177.251 132.745 176.444 133.725 176.444H152.245ZM37.3475 175.602C36.9536 175.602 36.7578 175.798 36.5616 175.994C36.3653 176.19 36.1699 176.386 36.1699 176.801C36.1699 176.997 36.3657 177.389 36.5616 177.587C36.7578 177.783 36.9536 177.783 37.3475 177.783C37.5437 177.783 37.9358 177.783 38.1312 177.587C38.3053 177.411 38.3247 177.082 38.3268 176.873L38.3271 176.801C38.3271 176.386 38.3271 176.19 38.1312 175.994C37.9354 175.798 37.5433 175.602 37.3475 175.602ZM158.177 171.864C158.963 171.864 159.749 172.669 159.749 173.651C159.749 174.458 158.963 175.244 158.177 175.244H149.301C148.515 175.244 147.729 174.458 147.729 173.651C147.729 172.669 148.515 171.864 149.301 171.864H158.177ZM106.387 33.5263C113.227 33.5263 118.843 38.9635 118.972 45.6805L118.975 45.918L118.974 46.7616C119.164 52.5442 114.956 57.6455 109.351 58.922L109.103 58.9758L108.928 59.0092V89.2268L141.763 141.901C142.828 143.673 143.451 145.726 143.725 148.06L143.77 148.475L143.812 148.948L143.817 149.075C143.817 156.773 137.498 163.123 129.659 163.259L129.403 163.261H49.7614L49.6388 163.257C46.7341 163.037 44.2358 162.35 42.1515 161.047C35.6013 157.027 33.5282 148.454 37.465 141.805L37.6031 141.577L70.2354 89.2268V59.0092L70.0615 58.9759C64.5095 57.8322 60.2664 52.9483 60.1848 47.351L60.184 47.0961L60.1898 46.8151V45.918C60.1898 39.1716 65.7258 33.6559 72.5362 33.5285L72.7771 33.5263H106.387ZM130.373 129.781H48.7909L40.3693 143.292C37.2383 148.366 38.7249 154.965 43.6551 158.148L43.8654 158.28C45.3765 159.225 47.2541 159.769 49.5054 159.979L49.884 160.011L49.8387 160.006H129.403C135.394 160.006 140.278 155.33 140.55 149.581L140.558 149.351L140.56 149.131L140.53 148.789C140.341 146.872 139.892 145.234 139.131 143.854L138.975 143.582L130.373 129.781ZM74.6707 138.419C75.6742 138.419 76.4597 139.226 76.4597 140.01C76.4597 141.013 75.6738 141.799 74.6707 141.799H56.151C55.1714 141.799 54.3855 141.013 54.3855 140.01C54.3855 139.226 55.1714 138.419 56.151 138.419H74.6707ZM80.6034 133.839C81.3893 133.839 82.1752 134.644 82.1752 135.626C82.1752 136.433 81.3893 137.219 80.6034 137.219H71.7271C70.9412 137.219 70.1549 136.433 70.1549 135.626C70.1549 134.644 70.9412 133.839 71.7271 133.839H80.6034ZM161.565 128.549L162.567 131.733L159.405 132.739L158.425 129.552L161.565 128.549ZM157.617 126.565L158.425 129.552L155.261 130.534L154.28 127.569L157.617 126.565ZM163.942 124.58L164.728 127.765L161.565 128.549L160.78 125.562L163.942 124.58ZM159.799 122.574L160.78 125.562L157.617 126.565L156.635 123.577L159.799 122.574ZM106.387 36.7813H72.7771C67.7182 36.7813 63.5703 40.781 63.4476 45.6941L63.4448 45.918L63.4439 46.8685C63.2934 51.452 67.0366 55.5231 71.7453 55.9383L71.9667 55.9551L73.4913 56.0517L73.491 61.2983L81.5334 61.299C82.3193 61.299 83.1052 62.1045 83.1052 63.0862C83.1052 63.8932 82.3193 64.6795 81.5334 64.6795L73.491 64.6791V70.5983L81.5334 70.599C82.3193 70.599 83.1052 71.4045 83.1052 72.3862C83.1052 73.1932 82.3193 73.9795 81.5334 73.9795L73.491 73.9791V79.8983L81.5334 79.899C82.3193 79.899 83.1052 80.7045 83.1052 81.6862C83.1052 82.4932 82.3193 83.2795 81.5334 83.2795L73.491 83.2791L73.4913 90.1584L50.8198 126.526H128.344L105.673 90.1584V56.0517L107.198 55.9551C111.936 55.6548 115.754 51.6497 115.724 47.032L115.72 46.8151V45.918C115.72 40.9032 111.523 36.7813 106.387 36.7813ZM28.8611 84.7717L29.8639 87.9564L26.701 88.9617L25.721 85.7752L28.8611 84.7717ZM24.9137 82.7883L25.721 85.7752L22.5577 86.7567L21.5759 83.7918L24.9137 82.7883ZM145.604 73.6271C147.174 73.6271 148.569 74.215 149.552 75.2182L149.747 75.414C150.729 76.4193 151.32 77.8145 151.32 79.4059C151.32 80.9992 150.729 82.3947 149.552 83.3765V83.5727C148.569 84.5759 147.174 85.166 145.604 85.166C144.032 85.166 142.658 84.5755 141.459 83.3765C140.477 82.3947 139.889 80.9992 139.889 79.4059C139.889 77.8145 140.477 76.4197 141.459 75.2182H141.676C142.658 74.215 144.032 73.6271 145.604 73.6271ZM31.2381 80.8033L32.0241 83.9876L28.8611 84.7717L28.0766 81.7851L31.2381 80.8033ZM27.0952 78.7967L28.0766 81.7851L24.9137 82.7883L23.9316 79.7998L27.0952 78.7967ZM145.604 77.0076C145.014 77.0076 144.427 77.2035 143.836 77.5955C143.444 78.207 143.248 78.7971 143.248 79.4059C143.248 79.996 143.444 80.5839 143.836 80.9992C144.427 81.5871 145.014 81.7851 145.604 81.7851C146.192 81.7851 146.782 81.5871 147.174 80.9992C147.786 80.5836 147.982 79.9957 147.982 79.4059C147.982 78.7967 147.786 78.2066 147.174 77.5955C146.783 77.2035 146.192 77.0076 145.604 77.0076ZM125.099 18.2427L131.207 21.6464C131.993 22.2343 132.189 23.2374 131.797 24.0237C131.601 24.2196 131.403 24.4154 131.207 24.6348L125.099 28.2115C124.313 28.6032 123.333 28.4074 122.94 27.6236C122.33 26.8163 122.722 25.8132 123.53 25.2231L127.064 23.2378L123.53 21.0353C122.723 20.6436 122.33 19.6401 122.94 18.8542C123.333 18.0469 124.313 17.6548 125.099 18.2427ZM52.7248 14.2743L53.5089 17.2624C53.707 18.0465 53.3131 19.0496 52.3309 19.2458C51.5468 19.4439 50.565 19.0496 50.3688 18.0465L49.5829 15.2775C49.3653 14.274 49.7787 13.2708 50.7609 13.075C51.5468 12.8765 52.529 13.4667 52.7248 14.2743ZM49.3657 12.2673C49.5832 13.0746 48.9718 14.0781 48.1877 14.274L45.2416 15.0577C44.2616 15.2771 43.2585 14.8618 43.0608 13.8583C42.8646 13.0746 43.4547 12.0711 44.262 11.8727L47.4017 11.0889C48.1877 10.8935 49.1695 11.2851 49.3657 12.2673ZM57.6544 9.88995C57.8502 10.8935 57.4582 11.873 56.476 12.0711L53.5089 12.8762C52.7252 13.0746 51.7434 12.4845 51.5468 11.6772C51.1529 10.6737 51.743 9.88995 52.7248 9.49569L55.6901 8.68839C56.476 8.49255 57.4582 9.08265 57.6544 9.88995ZM50.565 5.69995L51.1533 8.68876C51.5472 9.49606 50.9571 10.4782 49.9753 10.6741C49.1698 10.8935 48.188 10.2824 47.9918 9.49606L47.2059 6.70346C47.01 5.69995 47.5976 4.91658 48.3839 4.50097C49.3657 4.30476 50.173 4.91621 50.565 5.69995Z" fill="#CCCCCC"/>
</svg>
