<svg width="14" height="14" viewBox="0 0 14 14" fill="none" xmlns="http://www.w3.org/2000/svg">
<path d="M7.92331 2.18592C7.58172 1.36462 6.41826 1.36462 6.07667 2.18592L5.07486 4.59456C5.03885 4.68112 4.95745 4.74027 4.864 4.74776L2.26366 4.95623C1.37701 5.02731 1.01749 6.13382 1.69302 6.71249L3.67421 8.40958C3.7454 8.47057 3.7765 8.56626 3.75474 8.65745L3.14946 11.1949C2.94307 12.0602 3.88432 12.744 4.64342 12.2804L6.86968 10.9206C6.94968 10.8717 7.0503 10.8717 7.1303 10.9206L9.35656 12.2804C10.1157 12.744 11.0569 12.0602 10.8505 11.1949L10.2452 8.65745C10.2235 8.56626 10.2546 8.47057 10.3258 8.40958L12.307 6.71249C12.9825 6.13382 12.623 5.02731 11.7363 4.95623L9.13598 4.74776C9.04253 4.74027 8.96113 4.68112 8.92512 4.59456L7.92331 2.18592Z" fill="#3867FA"/>
</svg>
